<?xml version="1.0" encoding="UTF-8"?> <!-- Generator: Adobe Illustrator 24.0.0, SVG Export Plug-In . SVG Version: 6.00 Build 0) --> 
<svg xmlns="http://www.w3.org/2000/svg" xmlns:xlink="http://www.w3.org/1999/xlink" id="Calque_1" x="0px" y="0px" 
viewBox="0 0 373 165" style="enable-background:new 0 0 373 165;" 
xml:space="preserve">
     <style type="text/css"> .st0{fill:none;} .st1{fill:#1C0000;} .st2{fill:#C10012;} .st3{fill:#FFFFFF;} .st4{fill:#868686;} 
     </style> 
     <g> 
        <path class="st0" d="M110.1,64.7v13.2h7.5c4.7,0,7.5-2.8,7.5-6.5v-0.1c0-4.2-2.9-6.5-7.7-6.5L110.1,64.7L110.1,64.7z"></path>
         <path class="st1" d="M261.7,64.7h-7.3v13.2h7.5c4.7,0,7.5-2.8,7.5-6.5v-0.1C269.4,67,266.5,64.7,261.7,64.7z"></path> 
         <path class="st1" d="M317.7,26.8L201,40.8v67.3h116.6V35.7v-8.9C317.6,26.8,317.7,26.8,317.7,26.8z M236.8,99.1h-23 c-2.6,0-4.7-2.1-4.7-4.7V60.9c0-2.6,2.1-4.7,4.7-4.7h22.7c2.3,0,4.2,1.9,4.2,4.2s-1.9,4.2-4.2,4.2h-18v8.7h10.9 c2.3,0,4.2,1.9,4.2,4.2c0,2.3-1.9,4.2-4.2,4.2h-10.9v9h18.3c2.3,0,4.2,1.9,4.2,4.2C241.1,97.3,239.2,99.1,236.8,99.1z M279,71.2 c0,9.9-7.7,15.1-17.4,15.1h-7.2v8.5c0,2.6-2.1,4.7-4.7,4.7s-4.7-2.1-4.7-4.7V60.9c0-2.6,2.1-4.7,4.7-4.7h12.8 c10.2,0,16.4,6.1,16.4,14.8v0.2H279z M311.1,64.9H302v29.9c0,2.6-2.1,4.7-4.7,4.7s-4.7-2.1-4.7-4.7V64.9h-7.2c-2.4,0-4.4-2-4.4-4.4 s2-4.4,4.4-4.4h25.8c2.4,0,4.4,2,4.4,4.4C315.5,63,313.5,64.9,311.1,64.9z"></path> <path class="st2" d="M317.7,35.7V108H371V48.3L317.7,35.7z M363.7,94.8c0,2.6-2.1,4.7-4.7,4.7s-4.7-2.1-4.7-4.7V73.4L346,86.2 c-1,1.5-2.2,2.4-3.9,2.4c-1.7,0-2.9-0.9-3.9-2.4L330,73.6v21.3c0,2.6-2.1,4.6-4.7,4.6s-4.6-2-4.6-4.6V60.7c0-2.6,2.1-4.7,4.7-4.7h1 c2,0,3.4,1,4.3,2.5l11.4,18.6l11.5-18.6c1-1.6,2.3-2.4,4.2-2.4h1c2.6,0,4.7,2.1,4.7,4.7v34H363.7z"></path> 
         <path class="st3" d="M236.8,90.7h-18.3v-9h10.9c2.3,0,4.2-1.8,4.2-4.2c0-2.3-1.9-4.2-4.2-4.2h-10.9v-8.7h18c2.3,0,4.2-1.8,4.2-4.2 c0-2.3-1.9-4.2-4.2-4.2h-22.7c-2.6,0-4.7,2.1-4.7,4.7v33.5c0,2.6,2.1,4.7,4.7,4.7h23c2.3,0,4.2-1.8,4.2-4.2 C241.1,92.6,239.2,90.7,236.8,90.7z"></path>
        <path class="st3" d="M262.5,56.2h-12.8c-2.6,0-4.7,2.1-4.7,4.7v33.9c0,2.6,2.1,4.7,4.7,4.7s4.7-2.1,4.7-4.7v-8.5h7.2 c9.6,0,17.4-5.2,17.4-15.1v-0.1C279,62.3,272.8,56.2,262.5,56.2z M269.4,71.4c0,3.7-2.8,6.5-7.5,6.5h-7.5V64.7h7.3 c4.7,0,7.7,2.3,7.7,6.5V71.4z"></path> 
        <path class="st3" d="M311.1,56.2h-25.8c-2.4,0-4.4,2-4.4,4.4s2,4.4,4.4,4.4h7.2v29.9c0,2.6,2.1,4.7,4.7,4.7s4.7-2.1,4.7-4.7v-30 h9.1c2.4,0,4.4-2,4.4-4.4C315.5,58.2,313.5,56.2,311.1,56.2z"></path> <path class="st3" d="M359,56h-1c-1.9,0-3.3,0.8-4.2,2.4L342.3,77l-11.4-18.6c-0.9-1.4-2.3-2.5-4.3-2.5h-1c-2.6,0-4.7,2.1-4.7,4.7 v34.3c0,2.6,2,4.6,4.6,4.6s4.7-2,4.7-4.6V73.6l8.2,12.6c1,1.5,2.2,2.4,3.9,2.4c1.7,0,2.9-0.9,3.9-2.4l8.3-12.8v21.4 c0,2.6,2.1,4.7,4.7,4.7s4.7-2.1,4.7-4.7V60.7C363.7,58.1,361.6,56,359,56z"></path> 
        <path d="M57.7,81.2c-2.4,0-11.5,0-11.5,0l6-14.2l2.3,5.5c0,0,2.7-1.3,4.6-2c1.8-0.8,2.6-3,1.7-5c-0.8-2.1-2.7-6.2-2.7-6.2 c-1-2.3-2.9-3.8-5.5-3.8H52c-2.6,0-4.5,1.4-5.5,3.8l-15,33.9c-0.3,0.7-0.6,1.4-0.6,2c0,2.5,1.9,4.4,4.4,4.4c2,0,3.6-1.1,4.4-3 l3-7.1h18.6c0,0,0-2.4,0-4.8C61.3,82.4,60.1,81.2,57.7,81.2z"></path> <path d="M93.6,64.7C90.3,70,86,77,86,77L74.6,58.3c-0.9-1.4-2.3-2.4-4.3-2.4h-1c-2.6,0-4.7,2.1-4.7,4.7V95c0,2.6,2,4.6,4.6,4.6 s4.7-2,4.7-4.6V73.6l8.2,12.6c1,1.5,2.2,2.4,3.9,2.4c1.7,0,3-0.9,3.9-2.4L97.1,75c0,0,0-6.1,0-9.8C97.1,63.3,94.7,63,93.6,64.7z"></path> 
        <path d="M157,92.6c-0.3-1.3-1.3-2.1-2.8-1.8c-0.7,0.1-1.4,0.2-2.2,0.2c-5.8,0-9.3-3.6-9.3-10.7v-20c0-2.6-2.1-4.7-4.7-4.7 c-2.6,0-4.7,2.1-4.7,4.7v20.3c0,12.7,7.1,19.2,18.7,19.2c3.5,0,6.6-0.6,9.2-1.8c-0.4-0.2-0.7-0.5-1.1-0.7 C158.4,96.2,157.3,94.5,157,92.6z"></path> <path d="M167.9,84.4c1,0.5,2.6-0.2,2.7-1.3c0.1-0.9,0.1-1.8,0.1-2.8v-20c0-2.6-2.1-4.7-4.7-4.7c-0.4,0-0.9,0.1-1.3,0.2 c-1.5,0.4-2.7,1.5-3.2,3c-0.2,0.5-0.3,1-0.3,1.5v17.8v2.5c0,1.4-0.2,2.7-0.4,3.8c1.1-0.6,2.3-0.9,3.6-0.9 C165.7,83.6,166.8,83.8,167.9,84.4z"></path> 
        <path d="M24.3,90.9c-7.4,0-12.5-5.8-12.5-13.2v-0.1c0-7.4,5.2-13.4,12.5-13.4c3.4,0,6.2,1.1,8.8,3.1c0.7,0.4,1.5,0.9,2.8,0.9 c2.6,0,4.7-2,4.7-4.6c0-1.7-0.9-3-1.8-3.8c-3.6-2.6-7.9-4.4-14.4-4.4c-13.2,0-22.5,10-22.5,22.3v0.1c0,12.4,9.4,21.8,22.1,21.8h1.1 c0,0,1.4-3.3,2.2-5C28.2,92.9,26.3,90.9,24.3,90.9z"></path> <path d="M185.4,66.8c0.7,0.4,1.5,0.7,2.4,0.7c2.5,0,4.4-1.9,4.4-4.4c0-1.8-1-3.1-2.1-3.8c-3.9-2.5-8.5-3.8-13.7-3.8 c-1.6,0-2.6,1-2.6,2.6s0,6.1,0,6.1c0.7-0.2,1.5-0.3,2.5-0.3C179.3,63.9,182.3,64.9,185.4,66.8z"></path> <path d="M180.1,73.4c-0.9-0.2-1.7-0.5-2.5-0.7c-1.6-0.4-3.7,0.3-3.7,2.4c0,1.7,0,6.1,0,6.1c0.6,0.2,1.2,0.3,1.8,0.5 c7.2,1.8,8.7,3.1,8.7,5.5v0.1c0,2.5-2.3,4.1-6.2,4.1c-4.2,0-7.8-1.5-11-3.9c-0.6-0.4-1.5-0.9-2.7-0.9c-2.5,0-4.4,1.9-4.4,4.4 c0,1.5,0.7,2.8,1.8,3.6c4.8,3.4,10.5,5.2,16.2,5.2c9.3,0,15.8-4.8,15.8-13.4v-0.1C193.8,78.9,188.9,75.7,180.1,73.4z"></path> <path d="M105.4,56.2c-2.6,0-4.7,2.1-4.7,4.7v33.9c0,2.6,2.1,4.7,4.7,4.7s4.7-2.1,4.7-4.7v-8.5h7.2c5,0,9.4-1.4,12.6-4.1V60 c-2.8-2.4-6.8-3.8-11.7-3.8H105.4z M125,71.2L125,71.2c0,3.8-2.8,6.6-7.5,6.6H110V64.7h7.3C122.1,64.7,125,67,125,71.2z"></path>
    </g> 
    <g> 
    <path class="st4" d="M287.9,140.9c0,1,0.8,1.8,1.8,1.8s1.8-0.8,1.8-1.8v-12.8c0-1-0.8-1.8-1.8-1.8s-1.8,0.8-1.8,1.8V140.9z M276.7,140.9c0,1,0.8,1.8,1.8,1.8s1.8-0.8,1.8-1.8v-11.1h3.4c0.9,0,1.6-0.7,1.6-1.6s-0.7-1.6-1.6-1.6h-10.3 c-0.9,0-1.6,0.7-1.6,1.6s0.7,1.6,1.6,1.6h3.4L276.7,140.9L276.7,140.9z M258,140.9c0,1,0.8,1.8,1.8,1.8s1.8-0.8,1.8-1.8v-4.6h6.2 c0.9,0,1.6-0.7,1.6-1.6s-0.7-1.6-1.6-1.6h-6.2v-3.4h7.2c0.9,0,1.6-0.7,1.6-1.6s-0.7-1.6-1.6-1.6h-9c-1,0-1.8,0.8-1.8,1.8V140.9z M248.6,142.8c2.6,0,4.3-0.7,5.7-2c0.3-0.2,0.6-0.7,0.6-1.3c0-0.9-0.7-1.6-1.6-1.6c-0.4,0-0.8,0.2-1,0.4c-1,0.8-2,1.3-3.4,1.3 c-2.7,0-4.7-2.2-4.7-5.1v-0.1c0-2.7,1.9-5,4.7-5c1.3,0,2.2,0.4,3.3,1.1c0.2,0.2,0.6,0.3,1,0.3c1,0,1.8-0.7,1.8-1.7 c0-0.6-0.3-1.1-0.7-1.4c-1.4-1-3-1.6-5.4-1.6c-4.9,0-8.3,3.7-8.3,8.3v0.1C240.5,139.2,244,142.8,248.6,142.8 M227.2,135.5 L227.2,135.5c0,1.1,0.9,2,2,2s2-0.9,2-1.9v-0.1c0-1.1-0.9-1.9-2-1.9C228,133.5,227.2,134.4,227.2,135.5 M211.6,142.8 c2.6,0,4.3-0.7,5.7-2c0.3-0.2,0.6-0.7,0.6-1.3c0-0.9-0.7-1.6-1.6-1.6c-0.4,0-0.8,0.2-1,0.4c-1,0.8-2,1.3-3.4,1.3 c-2.7,0-4.7-2.2-4.7-5.1v-0.1c0-2.7,1.9-5,4.7-5c1.3,0,2.2,0.4,3.3,1.1c0.2,0.2,0.6,0.3,1,0.3c1,0,1.8-0.7,1.8-1.7 c0-0.6-0.3-1.1-0.7-1.4c-1.4-1-3-1.6-5.4-1.6c-4.9,0-8.3,3.7-8.3,8.3v0.1C203.4,139.2,206.9,142.8,211.6,142.8 M196.6,140.9 c0,1,0.8,1.8,1.8,1.8c1,0,1.8-0.8,1.8-1.8v-12.8c0-1-0.8-1.8-1.8-1.8c-1,0-1.8,0.8-1.8,1.8V140.9z M184.7,134.7v-4.9h2.7 c1.8,0,2.9,0.9,2.9,2.4v0.1c0,1.4-1,2.4-2.8,2.4H184.7z M181.2,140.9c0,1,0.8,1.8,1.8,1.8c1,0,1.8-0.8,1.8-1.8v-3.2h2.6 c3.6,0,6.5-1.9,6.5-5.6V132c0-3.3-2.3-5.5-6.1-5.5H183c-1,0-1.8,0.8-1.8,1.8L181.2,140.9L181.2,140.9z M167.6,142.6h9 c0.9,0,1.6-0.7,1.6-1.5c0-0.9-0.7-1.6-1.6-1.6h-7.2v-3.4h6.1c0.9,0,1.6-0.7,1.6-1.5c0-0.9-0.7-1.6-1.6-1.6h-6.1v-3.2h7.1 c0.9,0,1.6-0.7,1.6-1.5c0-0.9-0.7-1.6-1.6-1.6h-8.8c-1,0-1.8,0.8-1.8,1.8v12.4C165.9,141.8,166.7,142.6,167.6,142.6 M151.9,135.5 L151.9,135.5c0,1.1,0.9,2,2,2s2-0.9,2-1.9v-0.1c0-1.1-0.9-1.9-2-1.9C152.8,133.5,151.9,134.4,151.9,135.5 M125.9,141 c0,1,0.7,1.7,1.7,1.7s1.8-0.7,1.8-1.7v-7.9l3,4.7c0.4,0.6,0.8,0.9,1.4,0.9c0.6,0,1.1-0.3,1.4-0.9l3-4.7v7.9c0,1,0.8,1.8,1.8,1.8 c1,0,1.8-0.8,1.8-1.8v-12.7c0-1-0.8-1.8-1.8-1.8h-0.4c-0.7,0-1.2,0.3-1.6,0.9l-4.3,6.9l-4.3-6.9c-0.3-0.6-0.9-0.9-1.6-0.9h-0.4 c-1,0-1.8,0.8-1.8,1.8L125.9,141L125.9,141z M114.8,140.9c0,1,0.8,1.8,1.8,1.8s1.8-0.8,1.8-1.8v-11.1h3.4c0.9,0,1.6-0.7,1.6-1.6 s-0.7-1.6-1.6-1.6h-10.3c-0.9,0-1.6,0.7-1.6,1.6s0.7,1.6,1.6,1.6h3.4V140.9z M99.4,134.7v-4.9h2.7c1.8,0,2.9,0.9,2.9,2.4v0.1 c0,1.4-1,2.4-2.8,2.4H99.4z M95.9,140.9c0,1,0.8,1.8,1.8,1.8s1.8-0.8,1.8-1.8v-3.2h2.6c3.6,0,6.5-1.9,6.5-5.6V132 c0-3.3-2.3-5.5-6.1-5.5h-4.7c-1,0-1.8,0.8-1.8,1.8L95.9,140.9L95.9,140.9z M82.3,142.6h9c0.9,0,1.6-0.7,1.6-1.5 c0-0.9-0.7-1.6-1.6-1.6h-7.2v-3.4h6.1c0.9,0,1.6-0.7,1.6-1.5c0-0.9-0.7-1.6-1.6-1.6h-6.1v-3.2h7.1c0.9,0,1.6-0.7,1.6-1.5 c0-0.9-0.7-1.6-1.6-1.6h-8.8c-1,0-1.8,0.8-1.8,1.8v12.4C80.5,141.8,81.4,142.6,82.3,142.6"></path> 
    </g> 
</svg> 